<?xml version="1.0" encoding="UTF-8"?>
<svg xmlns="http://www.w3.org/2000/svg" viewBox="370.8431091308594 213.72999572753906 92.53549194335938 95.31654357910156">
  <rect x="370.8431091308594" y="213.72999572753906" width="92.53549194335938" height="95.31654357910156" rx="18" ry="18" fill="#0c65ff"/>
  <path d="M417.12,213.74c-34.33.13-57.23,38.64-40.89,67.9.95,1.87,1.64,3.85,2.22,5.86,7.64,28.63,69.05,28.72,77.08.32.59-1.96,1.28-3.89,2.22-5.7,16.75-29.43-5.97-68.16-40.63-68.39ZM408.74,265.86l3.99-7.83c1.83-3.58,6.95-3.58,8.77,0l3.99,7.83c1.67,3.27-.71,7.16-4.39,7.16h-7.97c-3.67,0-6.05-3.88-4.39-7.16ZM381.54,253.39c-.51-16.18,22.91-16.59,23.24-.41-.1,4.16,1.24,11-4.92,11.2-8.61.54-16.99-.66-18.32-10.79ZM448.46,279.49c-12.84,18.38-49.74,18.46-62.7,0-.64-.91.47-2.09,1.42-1.56,18.01,5.92,41.83,5.86,59.85,0,.96-.52,2.06.64,1.42,1.55ZM434.37,264.18c-6.16-.2-4.82-7.04-4.92-11.2.33-16.18,23.76-15.76,23.24.41-1.34,10.14-9.7,11.33-18.32,10.79Z" style="fill: #fff; fill-rule: evenodd;"/>
</svg>
